<svg width="6" height="4" viewBox="0 0 6 4" fill="none" xmlns="http://www.w3.org/2000/svg">
<path d="M2.45612 2.95138L0.113749 0.609C0.0816659 0.576917 0.0545414 0.539292 0.0323747 0.496125C0.0107914 0.453542 0 0.40775 0 0.35875C0 0.26075 0.032083 0.176459 0.0962497 0.105875C0.161583 0.0352919 0.247333 0 0.353499 0H5.32087C5.42646 0 5.51162 0.0361663 5.57637 0.1085C5.64112 0.180833 5.6735 0.264833 5.6735 0.3605C5.6735 0.385 5.63558 0.467833 5.55975 0.609L3.21737 2.95138C3.16312 3.00563 3.10479 3.04733 3.04237 3.0765C2.97996 3.10567 2.91142 3.12025 2.83675 3.12025C2.76208 3.12025 2.69354 3.10567 2.63112 3.0765C2.56871 3.04733 2.51037 3.00563 2.45612 2.95138Z" fill="#6A6A6A"/>
</svg>
